<svg width="72" height="72" viewBox="0 0 72 72" fill="none" xmlns="http://www.w3.org/2000/svg">
<path fill-rule="evenodd" clip-rule="evenodd" d="M45.5705 1.19043L6.32452 4.08885C3.16005 4.36375 2.05714 6.43422 2.05714 8.91633V51.9662C2.05714 53.9004 2.74449 55.5535 4.39779 57.7631L13.6234 69.7675C15.1388 71.7005 16.5159 72.114 19.4095 71.9756L64.9855 69.2155C68.8402 68.9409 69.9429 67.1458 69.9429 64.1103V15.6782C69.9429 14.1091 69.3239 13.6558 67.499 12.3196C67.3986 12.2463 67.2944 12.1701 67.1867 12.0909L54.6589 3.26033C51.6297 1.05355 50.3899 0.775858 45.5705 1.19043ZM20.4429 14.8838C16.7219 15.1358 15.8764 15.193 13.7632 13.4713L8.38961 9.19406C7.84157 8.64096 8.11642 7.95112 9.49252 7.81414L47.2231 5.0543C50.3892 4.77775 52.0413 5.88348 53.2812 6.84869L59.7527 11.5406C60.0282 11.6781 60.7156 12.5049 59.8889 12.5049L20.9232 14.8514L20.4429 14.8838ZM16.1027 63.6956V22.5786C16.1027 20.7851 16.6535 19.9566 18.3049 19.8173L63.0558 17.1966C64.5738 17.0586 65.2611 18.0253 65.2611 19.8173V60.6588C65.2611 62.4539 64.9848 63.9736 62.5054 64.1103L19.6822 66.5955C17.2039 66.7323 16.1027 65.9054 16.1027 63.6956ZM58.3778 24.7841C58.6524 26.0273 58.3778 27.2691 57.136 27.4089L55.0726 27.8212V58.1764C53.2812 59.1421 51.6293 59.6943 50.2527 59.6943C48.0488 59.6943 47.4967 59.0037 45.846 56.9351L32.3495 35.6863V56.2453L36.6202 57.2117C36.6202 57.2117 36.6202 59.6943 33.1747 59.6943L23.6759 60.2469C23.3999 59.6942 23.6759 58.3155 24.6393 58.0392L27.1181 57.3503V30.1675L23.6764 29.891C23.4004 28.648 24.0877 26.8558 26.017 26.7167L36.2072 26.0278L50.2527 47.5532V28.5111L46.6717 28.099C46.3967 26.5792 47.4967 25.4759 48.874 25.3389L58.3778 24.7841Z" fill="black"/>
</svg>
