<svg width="895" height="849" viewBox="0 0 895 849" fill="none" xmlns="http://www.w3.org/2000/svg">
<rect x="244.963" y="192.032" width="137.73" height="38.6454" transform="rotate(37.2983 244.963 192.032)" fill="#545454"/>
<circle cx="138.151" cy="137.745" r="138.324" transform="rotate(8.74423 138.151 137.745)" fill="#737373"/>
<rect x="762.25" y="289.57" width="137.73" height="39.8328" transform="rotate(156.744 762.25 289.57)" fill="#545454"/>
<rect x="352.594" y="653.135" width="127.593" height="39.8328" transform="rotate(-69.1509 352.594 653.135)" fill="#545454"/>
<ellipse cx="815.233" cy="246.092" rx="79.5511" ry="78.3638" transform="rotate(8.74423 815.233 246.092)" fill="#737373"/>
<circle cx="474.78" cy="393.742" r="171.569" transform="rotate(8.74423 474.78 393.742)" fill="#5CE1E6"/>
<circle cx="339.431" cy="738.717" r="110.422" transform="rotate(8.74423 339.431 738.717)" fill="#737373"/>
<path d="M279.368 47.6467C279.329 46.0819 280.151 45.307 281.834 45.322C282.58 45.3329 283.489 45.4922 284.563 45.7999L286.337 46.3766L290.061 47.7688C290.893 48.0388 291.642 48.2231 292.309 48.3216C294.128 48.6236 296.234 48.4678 298.627 47.8543C300.488 47.3931 303.068 46.4408 306.369 44.9974C307.434 44.5881 312.57 42.162 321.778 37.7191L326.141 35.7993C329.04 34.6174 331.382 33.9747 333.168 33.8712C335.389 33.6826 337.453 34.2955 339.358 35.7098C341.452 37.2251 343.692 39.7489 346.08 43.2812L339.073 55.2483L336.586 55.068L335.156 55.0387C334.183 55.0558 333.281 55.172 332.452 55.3872C331.818 55.5508 331.204 55.7819 330.607 56.0806C327.306 58.0976 325.139 59.2583 324.107 59.5627C322.385 60.2291 320.37 60.6322 318.063 60.772C316.167 60.9007 313.739 60.8854 310.778 60.726L295.895 59.583C292.263 59.2952 289.551 58.833 287.76 58.1963C285.455 57.4451 283.575 56.1382 282.121 54.2756C280.4 52.0221 279.482 49.8222 279.368 47.676" fill="#292929"/>
<path d="M300.348 58.2486L332.685 62.7876C328.809 60.3324 326.62 58.533 326.119 57.3895C325.475 56.1601 326.096 54.902 327.983 53.6151C331.046 51.4245 333.63 50.4742 335.736 50.7644C338.141 50.9781 340.716 52.4305 343.459 55.1214C348.503 60.329 352.152 65.6908 354.405 71.2069C355.876 75.0279 354.875 77.0457 351.401 77.2604C350.267 77.3407 348.861 77.2577 347.184 77.0114C339.69 75.6231 335.126 74.8542 333.491 74.7044L330.682 74.4036C326.724 74.1546 324.479 73.9706 323.948 73.8515C322.291 73.6145 320.747 73.2274 319.315 72.6901C315.106 71.3358 308.786 66.5237 300.353 58.2539" fill="#292929"/>
<path d="M673.317 762.827C676.331 765.292 678.771 767.515 680.635 769.497L695.2 786.21L712.822 804.081C714.192 805.608 715.539 807.276 716.865 809.086C717.369 809.683 719.525 812.883 723.331 818.684C724.21 819.938 725.027 820.969 725.783 821.779C726.485 822.743 729.248 824.967 734.073 828.452C734.955 829.201 735.74 829.991 736.43 830.822C740.722 836.666 741.65 840.225 739.215 841.5C730.788 843.533 724.097 843.48 719.14 841.34C717.196 840.624 714.888 839.399 712.214 837.664L699.854 829.669L686.909 820.568L682.925 818.113C682.025 817.633 680.81 817.23 679.283 816.906L658.899 812.902C655.848 811.861 653.457 810.344 651.728 808.351C650.379 806.749 649.627 804.851 649.47 802.657L649.686 788.074C649.611 785.18 649.233 780.915 648.553 775.278L673.183 762.895" fill="#292929"/>
<path d="M110.662 350.874C111.791 349.349 114.067 348.724 117.491 348.999C118.835 349.129 120.196 349.423 121.574 349.881L129.064 352.742C129.373 352.916 130.386 352.911 132.103 352.727C132.665 352.781 133.202 352.898 133.716 353.079C134.82 353.449 136.226 354.118 137.935 355.085C147.868 361.034 153.389 364.238 154.498 364.697C157.322 366.18 159.786 367.138 161.887 367.571C163.222 367.851 164.59 367.957 165.992 367.886C172.449 367.022 177.881 366.632 182.287 366.715C186.678 366.764 189.626 367.16 191.129 367.902C192.368 368.297 193.815 369.76 195.47 372.291C196.992 374.45 197.936 376.425 198.3 378.215C199.035 380.895 198.141 384.366 195.616 388.625C194.544 390.4 193.673 391.699 193.001 392.523L169.403 401.143C168.81 400.54 164.301 397.976 155.876 393.45C153.813 392.234 151.679 390.872 149.475 389.362C144.958 386.311 138.896 381.531 131.29 375.022C123.652 368.449 117.195 362.741 111.92 357.899C110.254 354.762 109.82 352.445 110.619 350.947" fill="#292929"/>
<path d="M451.589 143.159C460.489 145.915 466.618 148.48 469.976 150.854C473.46 153.049 477.365 157.208 481.689 163.333L491.802 163.603C493.399 163.756 494.535 164.115 495.209 164.681C495.805 165.11 496.02 165.875 495.853 166.975C495.845 167.544 495.135 169.459 493.722 172.718C493.517 173.295 493.471 173.741 493.583 174.055C493.746 174.339 493.951 174.503 494.2 174.547C496.633 174.654 497.934 174.959 498.101 175.462C498.361 175.776 498.555 176.193 498.683 176.713C499.058 179.583 499.341 181.009 499.53 180.99C499.674 181.244 499.919 181.44 500.265 181.578C502.133 181.786 503.044 182.038 502.997 182.334C503.11 182.44 503.225 182.713 503.341 183.152C503.575 185.865 503.813 187.238 504.054 187.272C504.205 187.515 504.447 187.717 504.781 187.881L507.276 188.825C507.76 189.107 508.15 189.42 508.444 189.764C509.544 191.031 510.168 192.549 510.315 194.318C510.429 195.836 509.87 197.196 508.641 198.398L506.427 200.182C502.153 202.937 499.579 204.653 498.707 205.329C497.19 206.429 495.834 207.495 494.641 208.527C491.704 211.048 489.8 213.346 488.929 215.419C488.459 216.491 488.189 217.836 488.12 219.456C488.583 226.591 488.322 236.617 487.34 249.534L456.871 232.96L451.594 143.245" fill="#292929"/>
<path d="M434.12 134.304C435.518 133.777 437.661 134.164 440.547 135.464C443.456 136.967 447.646 138.869 453.119 141.172C454.534 141.924 455.459 142.855 455.895 143.964C456.167 144.705 456.293 145.547 456.273 146.491L455.614 154.817C455.565 156.419 455.68 157.956 455.959 159.43C456.205 160.709 456.651 162.168 457.297 163.808L461.449 173.303C461.941 174.611 462.26 175.844 462.406 177.005C462.519 178.04 462.508 179.074 462.373 180.107C461.511 184.571 461.127 186.903 461.22 187.103C461.135 188.244 461.236 189.443 461.522 190.699C461.782 191.842 462.354 193.25 463.236 194.921C467.843 202.542 470.31 206.861 470.636 207.877C471.841 210.433 472.668 212.951 473.116 215.43C474.091 220.605 474 226.727 472.844 233.795L436.346 189.265C432.745 168.308 430.841 154.292 430.635 147.216C430.184 139.461 431.344 135.158 434.114 134.306" fill="#292929"/>
<path d="M468.641 227.68L516.758 268.412C527.828 274.618 535.597 279.665 540.066 283.552C545.167 287.722 548.589 292.441 550.334 297.71C552.135 302.937 551.907 310.368 549.652 320.002C542.452 339.764 529.039 389.787 509.413 470.071C518.298 479.077 526.378 490.019 533.654 502.896L587.392 605.463C589.79 610.282 591.485 614.586 592.475 618.375C593.519 621.489 594.792 629.607 596.295 642.727C596.93 645.615 597.927 648.203 599.283 650.491C646.105 722.385 672.685 760.792 679.025 765.713L649.502 779.362L648.637 779.554L636.596 762.287C606.107 732.521 585.905 710.999 575.99 697.721C570.817 691.142 566.18 684.094 562.08 676.577C547.898 643.326 538.826 625.02 534.863 621.66C533.443 618.659 520.024 602.915 494.605 574.425L467.63 536.889L437.05 502.958C388.686 516.352 357.362 524.034 343.079 526.005C326.684 528.875 311.048 528.699 296.172 525.476C243.808 463.339 199.979 421.33 164.685 399.449L194.131 390.323L248.125 419.26C287.087 439.471 306.508 459.788 306.388 480.213C314.143 481.242 322.349 480.274 331.005 477.308L402.802 448.867C411.439 431.397 418.225 420.323 423.159 415.647C429.756 408.347 440.975 403.276 456.818 400.435C458.005 395.889 458.737 392.116 459.013 389.117C463.703 380.761 452.349 330.567 424.952 238.536L468.362 227.746" fill="#292929"/>
<path d="M345.468 39.8016C411.914 100.136 447.988 134.32 453.692 142.355L436.343 142.249L476.098 247.172L430.021 245.422C419.256 200.991 411.093 174.405 405.533 165.663L399.474 154.64L356.144 85.6654C344.988 68.1254 337.323 57.1381 333.15 52.7035L345.453 39.8167" fill="#292929"/>
<path d="M388.014 157.988L400.601 153.428L420.028 194.678L443.108 284.113L448.35 293.666C452.928 301.748 457.312 308.091 461.501 312.694C463.496 314.937 465.711 317.087 468.146 319.144C480.267 328.351 486.601 333.444 487.15 334.423C490.749 337.954 493.245 341.646 494.639 345.499C497.825 353.059 497.416 366.997 493.412 387.313C490.437 398.295 486.13 404.776 480.491 406.756C466.593 410.34 458.319 410.435 455.669 407.042C455.173 405.943 455.122 404.729 455.515 403.398L460.113 390.692C460.872 388.226 461.335 385.905 461.502 383.728C461.781 379.298 460.85 374.626 458.708 369.711C457.449 366.661 455.438 362.828 452.675 358.211L428.732 319.476C426.017 314.793 423.964 310.803 422.575 307.505C420.687 303.111 419.379 298.839 418.651 294.688C418.318 293.811 417.698 287.592 416.791 276.031C416.57 274.07 416.26 272.167 415.862 270.321C415.246 267.34 414.213 264.519 412.765 261.857C411.023 258.762 408.671 255.736 405.711 252.778C392.656 241.349 385.784 234.983 385.095 233.679C381.799 229.993 379.414 226.249 377.938 222.444C377.232 220.71 376.706 218.452 376.362 215.67C376.01 205.003 375.688 199.716 375.397 199.808C375.196 198.697 374.791 197.432 374.182 196.013C370.878 190.078 369.212 186.731 369.185 185.97C368.508 184.028 368.362 181.62 368.748 178.746C370.54 169.391 376.951 162.476 387.981 158.002" fill="#292929"/>
<path d="M470.998 202.73C474.425 206.373 477.651 208.441 480.676 208.936C481.665 209.136 482.801 209.235 484.084 209.234C487.071 209.232 490.854 208.686 495.433 207.596L495.437 207.596L495.376 207.908L495.372 207.908C495.122 208.116 494.878 208.322 494.641 208.527C491.704 211.048 489.8 213.346 488.929 215.419C488.459 216.491 488.189 217.837 488.12 219.456C488.512 225.508 488.385 233.639 487.737 243.85L487.742 243.85L488.228 244.261L488.096 244.929L470.998 202.744L470.993 202.73L470.998 202.73Z" fill="#292929"/>
</svg>
